{
    "asset" : {
        "generator" : "Khronos glTF Blender I/O v1.0.5",
        "version" : "2.0"
    },
    "scene" : 0,
    "scenes" : [
        {
            "name" : "Scene",
            "nodes" : [
                0
            ]
        }
    ],
    "nodes" : [
        {
            "mesh" : 0,
            "name" : "PlaneB",
            "rotation" : [
                0.7090275883674622,
                0,
                0.7051807641983032,
                -2.638336695781618e-07
            ],
            "scale" : [
                5.765995979309082,
                5.090247631072998,
                5.707268714904785
            ],
            "translation" : [
                -9.963566780090332,
                0.0005532592185772955,
                0.4417323172092438
            ]
        }
    ],
    "meshes" : [
        {
            "name" : "Plane.106",
            "primitives" : [
                {
                    "attributes" : {
                        "POSITION" : 0,
                        "NORMAL" : 1,
                        "TEXCOORD_0" : 2
                    },
                    "indices" : 3
                }
            ]
        }
    ],
    "accessors" : [
        {
            "bufferView" : 0,
            "componentType" : 5126,
            "count" : 722,
            "max" : [
                0.009874485433101654,
                0.2254735827445984,
                0.17833298444747925
            ],
            "min" : [
                -0.16355624794960022,
                0.0290193110704422,
                0.003117680549621582
            ],
            "type" : "VEC3"
        },
        {
            "bufferView" : 1,
            "componentType" : 5126,
            "count" : 722,
            "type" : "VEC3"
        },
        {
            "bufferView" : 2,
            "componentType" : 5126,
            "count" : 722,
            "type" : "VEC2"
        },
        {
            "bufferView" : 3,
            "componentType" : 5123,
            "count" : 732,
            "type" : "SCALAR"
        }
    ],
    "bufferViews" : [
        {
            "buffer" : 0,
            "byteLength" : 8664,
            "byteOffset" : 0
        },
        {
            "buffer" : 0,
            "byteLength" : 8664,
            "byteOffset" : 8664
        },
        {
            "buffer" : 0,
            "byteLength" : 5776,
            "byteOffset" : 17328
        },
        {
            "buffer" : 0,
            "byteLength" : 1464,
            "byteOffset" : 23104
        }
    ],
    "buffers" : [
        {
            "byteLength" : 24568,
            "uri" : "data:application/octet-stream;base64,"
        }
    ]
}
