{
    "asset" : {
        "generator" : "Khronos glTF Blender I/O v1.0.5",
        "version" : "2.0"
    },
    "scene" : 0,
    "scenes" : [
        {
            "name" : "Scene",
            "nodes" : [
                0
            ]
        }
    ],
    "nodes" : [
        {
            "mesh" : 0,
            "name" : "PlaneL",
            "scale" : [
                9857.732421875,
                16761101,
                11208.1123046875
            ],
            "translation" : [
                1.918935775756836,
                0,
                0.42548683285713196
            ]
        }
    ],
    "meshes" : [
        {
            "name" : "Plane.116",
            "primitives" : [
                {
                    "attributes" : {
                        "POSITION" : 0,
                        "NORMAL" : 1,
                        "TEXCOORD_0" : 2
                    },
                    "indices" : 3
                }
            ]
        }
    ],
    "accessors" : [
        {
            "bufferView" : 0,
            "componentType" : 5126,
            "count" : 53,
            "max" : [
                0.00010055018356069922,
                -5.7062348078553045e-15,
                5.824160325573757e-06
            ],
            "min" : [
                -8.93021933734417e-07,
                -5.966197846873911e-08,
                -8.339695341419429e-05
            ],
            "type" : "VEC3"
        },
        {
            "bufferView" : 1,
            "componentType" : 5126,
            "count" : 53,
            "type" : "VEC3"
        },
        {
            "bufferView" : 2,
            "componentType" : 5126,
            "count" : 53,
            "type" : "VEC2"
        },
        {
            "bufferView" : 3,
            "componentType" : 5123,
            "count" : 54,
            "type" : "SCALAR"
        }
    ],
    "bufferViews" : [
        {
            "buffer" : 0,
            "byteLength" : 636,
            "byteOffset" : 0
        },
        {
            "buffer" : 0,
            "byteLength" : 636,
            "byteOffset" : 636
        },
        {
            "buffer" : 0,
            "byteLength" : 424,
            "byteOffset" : 1272
        },
        {
            "buffer" : 0,
            "byteLength" : 108,
            "byteOffset" : 1696
        }
    ],
    "buffers" : [
        {
            "byteLength" : 1804,
            "uri" : "data:application/octet-stream;base64,"
        }
    ]
}
