{
    "asset" : {
        "generator" : "Khronos glTF Blender I/O v1.0.5",
        "version" : "2.0"
    },
    "scene" : 0,
    "scenes" : [
        {
            "name" : "Scene",
            "nodes" : [
                0
            ]
        }
    ],
    "nodes" : [
        {
            "mesh" : 0,
            "name" : "PlaneC",
            "rotation" : [
                -0.5472604632377625,
                -0.4477786421775818,
                -0.44777870178222656,
                0.5472610592842102
            ],
            "scale" : [
                3.2332489490509033,
                2.8927834033966064,
                6.586991310119629
            ],
            "translation" : [
                -10.887094497680664,
                -0.025889301672577858,
                -0.8877780437469482
            ]
        }
    ],
    "meshes" : [
        {
            "extras" : {
                "targetNames" : [
                    "Smooth"
                ]
            },
            "name" : "Plane.027",
            "primitives" : [
                {
                    "attributes" : {
                        "POSITION" : 0,
                        "NORMAL" : 1,
                        "TEXCOORD_0" : 2
                    },
                    "indices" : 3,
                    "targets" : [
                        {
                            "POSITION" : 4,
                            "NORMAL" : 5
                        }
                    ]
                }
            ],
            "weights" : [
                0
            ]
        }
    ],
    "accessors" : [
        {
            "bufferView" : 0,
            "componentType" : 5126,
            "count" : 570,
            "max" : [
                0.5821709036827087,
                0.9651743173599243,
                0.046016380190849304
            ],
            "min" : [
                0.27288442850112915,
                0.6194864511489868,
                -0.10579805821180344
            ],
            "type" : "VEC3"
        },
        {
            "bufferView" : 1,
            "componentType" : 5126,
            "count" : 570,
            "type" : "VEC3"
        },
        {
            "bufferView" : 2,
            "componentType" : 5126,
            "count" : 570,
            "type" : "VEC2"
        },
        {
            "bufferView" : 3,
            "componentType" : 5123,
            "count" : 684,
            "type" : "SCALAR"
        },
        {
            "bufferView" : 4,
            "componentType" : 5126,
            "count" : 570,
            "max" : [
                6.338953971862793e-05,
                0.00013637542724609375,
                4.589557647705078e-06
            ],
            "min" : [
                -6.338953971862793e-05,
                -0.00011676549911499023,
                -4.597008228302002e-06
            ],
            "type" : "VEC3"
        },
        {
            "bufferView" : 5,
            "componentType" : 5126,
            "count" : 570,
            "type" : "VEC3"
        }
    ],
    "bufferViews" : [
        {
            "buffer" : 0,
            "byteLength" : 6840,
            "byteOffset" : 0
        },
        {
            "buffer" : 0,
            "byteLength" : 6840,
            "byteOffset" : 6840
        },
        {
            "buffer" : 0,
            "byteLength" : 4560,
            "byteOffset" : 13680
        },
        {
            "buffer" : 0,
            "byteLength" : 1368,
            "byteOffset" : 18240
        },
        {
            "buffer" : 0,
            "byteLength" : 6840,
            "byteOffset" : 19608
        },
        {
            "buffer" : 0,
            "byteLength" : 6840,
            "byteOffset" : 26448
        }
    ],
    "buffers" : [
        {
            "byteLength" : 33288,
            "uri" : "data:application/octet-stream;base64,"
        }
    ]
}
