{
    "asset" : {
        "generator" : "Khronos glTF Blender I/O v1.0.5",
        "version" : "2.0"
    },
    "scene" : 0,
    "scenes" : [
        {
            "name" : "Scene",
            "nodes" : [
                0
            ]
        }
    ],
    "nodes" : [
        {
            "mesh" : 0,
            "name" : "PlaneG",
            "rotation" : [
                0.5054274201393127,
                -0.4945130944252014,
                0.49451303482055664,
                0.505427360534668
            ],
            "scale" : [
                24.423778533935547,
                21.47078514099121,
                56.08330535888672
            ],
            "translation" : [
                -4.019020080566406,
                -0.019280875101685524,
                0.3251815438270569
            ]
        }
    ],
    "meshes" : [
        {
            "name" : "Plane.111",
            "primitives" : [
                {
                    "attributes" : {
                        "POSITION" : 0,
                        "NORMAL" : 1,
                        "TEXCOORD_0" : 2
                    },
                    "indices" : 3
                }
            ]
        }
    ],
    "accessors" : [
        {
            "bufferView" : 0,
            "componentType" : 5126,
            "count" : 2452,
            "max" : [
                0.0043544769287109375,
                0.0026729553937911987,
                -0.05199646204710007
            ],
            "min" : [
                -0.03658924996852875,
                -0.0439019650220871,
                -0.06982710212469101
            ],
            "type" : "VEC3"
        },
        {
            "bufferView" : 1,
            "componentType" : 5126,
            "count" : 2452,
            "type" : "VEC3"
        },
        {
            "bufferView" : 2,
            "componentType" : 5126,
            "count" : 2452,
            "type" : "VEC2"
        },
        {
            "bufferView" : 3,
            "componentType" : 5123,
            "count" : 2646,
            "type" : "SCALAR"
        }
    ],
    "bufferViews" : [
        {
            "buffer" : 0,
            "byteLength" : 29424,
            "byteOffset" : 0
        },
        {
            "buffer" : 0,
            "byteLength" : 29424,
            "byteOffset" : 29424
        },
        {
            "buffer" : 0,
            "byteLength" : 19616,
            "byteOffset" : 58848
        },
        {
            "buffer" : 0,
            "byteLength" : 5292,
            "byteOffset" : 78464
        }
    ],
    "buffers" : [
        {
            "byteLength" : 83756,
            "uri" : "data:application/octet-stream;base64,"
        }
    ]
}
