{
    "asset" : {
        "generator" : "Khronos glTF Blender I/O v1.0.5",
        "version" : "2.0"
    },
    "scene" : 0,
    "scenes" : [
        {
            "name" : "Scene",
            "nodes" : [
                0
            ]
        }
    ],
    "nodes" : [
        {
            "mesh" : 0,
            "name" : "PlaneS",
            "translation" : [
                -6.777006149291992,
                0,
                1.8470172882080078
            ]
        }
    ],
    "meshes" : [
        {
            "name" : "Plane.122",
            "primitives" : [
                {
                    "attributes" : {
                        "POSITION" : 0,
                        "NORMAL" : 1,
                        "TEXCOORD_0" : 2
                    },
                    "indices" : 3
                }
            ]
        }
    ],
    "accessors" : [
        {
            "bufferView" : 0,
            "componentType" : 5126,
            "count" : 1635,
            "max" : [
                1.2219579219818115,
                -7.065325462463079e-07,
                0.10861539840698242
            ],
            "min" : [
                0.10078585147857666,
                -0.17269060015678406,
                -0.8305668830871582
            ],
            "type" : "VEC3"
        },
        {
            "bufferView" : 1,
            "componentType" : 5126,
            "count" : 1635,
            "type" : "VEC3"
        },
        {
            "bufferView" : 2,
            "componentType" : 5126,
            "count" : 1635,
            "type" : "VEC2"
        },
        {
            "bufferView" : 3,
            "componentType" : 5123,
            "count" : 1710,
            "type" : "SCALAR"
        }
    ],
    "bufferViews" : [
        {
            "buffer" : 0,
            "byteLength" : 19620,
            "byteOffset" : 0
        },
        {
            "buffer" : 0,
            "byteLength" : 19620,
            "byteOffset" : 19620
        },
        {
            "buffer" : 0,
            "byteLength" : 13080,
            "byteOffset" : 39240
        },
        {
            "buffer" : 0,
            "byteLength" : 3420,
            "byteOffset" : 52320
        }
    ],
    "buffers" : [
        {
            "byteLength" : 55740,
            "uri" : "data:application/octet-stream;base64,"
        }
    ]
}
