{
    "asset" : {
        "generator" : "Khronos glTF Blender I/O v1.0.5",
        "version" : "2.0"
    },
    "scene" : 0,
    "scenes" : [
        {
            "name" : "Scene",
            "nodes" : [
                0
            ]
        }
    ],
    "nodes" : [
        {
            "mesh" : 0,
            "name" : "PlaneE",
            "rotation" : [
                0.722090482711792,
                0,
                0.6917986273765564,
                -2.070782443297503e-07
            ],
            "scale" : [
                0.1969931721687317,
                0.27716031670570374,
                0.17312394082546234
            ],
            "translation" : [
                -6.460497856140137,
                -2.5943820476531982,
                0.416720986366272
            ]
        }
    ],
    "meshes" : [
        {
            "name" : "Plane.109",
            "primitives" : [
                {
                    "attributes" : {
                        "POSITION" : 0,
                        "NORMAL" : 1,
                        "TEXCOORD_0" : 2
                    },
                    "indices" : 3
                }
            ]
        }
    ],
    "accessors" : [
        {
            "bufferView" : 0,
            "componentType" : 5126,
            "count" : 264,
            "max" : [
                0.1517190933227539,
                3.7246038913726807,
                5.720668792724609
            ],
            "min" : [
                -4.924603462219238,
                0.1165810227394104,
                -0.0555419921875
            ],
            "type" : "VEC3"
        },
        {
            "bufferView" : 1,
            "componentType" : 5126,
            "count" : 264,
            "type" : "VEC3"
        },
        {
            "bufferView" : 2,
            "componentType" : 5126,
            "count" : 264,
            "type" : "VEC2"
        },
        {
            "bufferView" : 3,
            "componentType" : 5123,
            "count" : 300,
            "type" : "SCALAR"
        }
    ],
    "bufferViews" : [
        {
            "buffer" : 0,
            "byteLength" : 3168,
            "byteOffset" : 0
        },
        {
            "buffer" : 0,
            "byteLength" : 3168,
            "byteOffset" : 3168
        },
        {
            "buffer" : 0,
            "byteLength" : 2112,
            "byteOffset" : 6336
        },
        {
            "buffer" : 0,
            "byteLength" : 600,
            "byteOffset" : 8448
        }
    ],
    "buffers" : [
        {
            "byteLength" : 9048,
            "uri" : "data:application/octet-stream;base64,"
        }
    ]
}
