{
    "asset" : {
        "generator" : "Khronos glTF Blender I/O v1.0.5",
        "version" : "2.0"
    },
    "scene" : 0,
    "scenes" : [
        {
            "name" : "Scene",
            "nodes" : [
                0
            ]
        }
    ],
    "nodes" : [
        {
            "mesh" : 0,
            "name" : "PlaneA",
            "rotation" : [
                0,
                -0.695152759552002,
                0,
                0.7188621163368225
            ],
            "scale" : [
                0.5429328680038452,
                0.3899214267730713,
                0.3915136456489563
            ],
            "translation" : [
                -11.215982437133789,
                0,
                0.4759194850921631
            ]
        }
    ],
    "meshes" : [
        {
            "name" : "Plane.105",
            "primitives" : [
                {
                    "attributes" : {
                        "POSITION" : 0,
                        "NORMAL" : 1,
                        "TEXCOORD_0" : 2
                    },
                    "indices" : 3
                }
            ]
        }
    ],
    "accessors" : [
        {
            "bufferView" : 0,
            "componentType" : 5126,
            "count" : 132,
            "max" : [
                0.07972979545593262,
                0.09315899014472961,
                -0.2530488967895508
            ],
            "min" : [
                -1.768169641494751,
                -2.476803779602051,
                -2.849456787109375
            ],
            "type" : "VEC3"
        },
        {
            "bufferView" : 1,
            "componentType" : 5126,
            "count" : 132,
            "type" : "VEC3"
        },
        {
            "bufferView" : 2,
            "componentType" : 5126,
            "count" : 132,
            "type" : "VEC2"
        },
        {
            "bufferView" : 3,
            "componentType" : 5123,
            "count" : 144,
            "type" : "SCALAR"
        }
    ],
    "bufferViews" : [
        {
            "buffer" : 0,
            "byteLength" : 1584,
            "byteOffset" : 0
        },
        {
            "buffer" : 0,
            "byteLength" : 1584,
            "byteOffset" : 1584
        },
        {
            "buffer" : 0,
            "byteLength" : 1056,
            "byteOffset" : 3168
        },
        {
            "buffer" : 0,
            "byteLength" : 288,
            "byteOffset" : 4224
        }
    ],
    "buffers" : [
        {
            "byteLength" : 4512,
            "uri" : "data:application/octet-stream;base64,"
        }
    ]
}
