{
    "asset" : {
        "generator" : "Khronos glTF Blender I/O v1.0.5",
        "version" : "2.0"
    },
    "scene" : 0,
    "scenes" : [
        {
            "name" : "Scene",
            "nodes" : [
                0
            ]
        }
    ],
    "nodes" : [
        {
            "mesh" : 0,
            "name" : "PlaneD",
            "rotation" : [
                0,
                -0.6946935653686523,
                0,
                0.7193058133125305
            ],
            "scale" : [
                3.2647957801818848,
                11.337359428405762,
                2.7052934169769287
            ],
            "translation" : [
                -7.714583396911621,
                0.5468586683273315,
                0.4682347774505615
            ]
        }
    ],
    "meshes" : [
        {
            "name" : "Plane.108",
            "primitives" : [
                {
                    "attributes" : {
                        "POSITION" : 0,
                        "NORMAL" : 1,
                        "TEXCOORD_0" : 2
                    },
                    "indices" : 3
                }
            ]
        }
    ],
    "accessors" : [
        {
            "bufferView" : 0,
            "componentType" : 5126,
            "count" : 611,
            "max" : [
                0.0031568598933517933,
                4.1955956930905813e-08,
                -0.009482145309448242
            ],
            "min" : [
                -0.30314138531684875,
                -0.08820398896932602,
                -0.37912797927856445
            ],
            "type" : "VEC3"
        },
        {
            "bufferView" : 1,
            "componentType" : 5126,
            "count" : 611,
            "type" : "VEC3"
        },
        {
            "bufferView" : 2,
            "componentType" : 5126,
            "count" : 611,
            "type" : "VEC2"
        },
        {
            "bufferView" : 3,
            "componentType" : 5123,
            "count" : 648,
            "type" : "SCALAR"
        }
    ],
    "bufferViews" : [
        {
            "buffer" : 0,
            "byteLength" : 7332,
            "byteOffset" : 0
        },
        {
            "buffer" : 0,
            "byteLength" : 7332,
            "byteOffset" : 7332
        },
        {
            "buffer" : 0,
            "byteLength" : 4888,
            "byteOffset" : 14664
        },
        {
            "buffer" : 0,
            "byteLength" : 1296,
            "byteOffset" : 19552
        }
    ],
    "buffers" : [
        {
            "byteLength" : 20848,
            "uri" : "data:application/octet-stream;base64,"
        }
    ]
}
