{
    "asset" : {
        "generator" : "Khronos glTF Blender I/O v1.0.5",
        "version" : "2.0"
    },
    "scene" : 0,
    "scenes" : [
        {
            "name" : "Scene",
            "nodes" : [
                0
            ]
        }
    ],
    "nodes" : [
        {
            "mesh" : 0,
            "name" : "PlaneQ",
            "translation" : [
                8.300823211669922,
                0,
                0.5750297904014587
            ]
        }
    ],
    "meshes" : [
        {
            "name" : "Plane.120",
            "primitives" : [
                {
                    "attributes" : {
                        "POSITION" : 0,
                        "NORMAL" : 1,
                        "TEXCOORD_0" : 2
                    },
                    "indices" : 3
                }
            ]
        }
    ],
    "accessors" : [
        {
            "bufferView" : 0,
            "componentType" : 5126,
            "count" : 2104,
            "max" : [
                1.1779513359069824,
                0.9688215851783752,
                0.16634529829025269
            ],
            "min" : [
                -0.035140275955200195,
                -0.03260381892323494,
                -0.9775856137275696
            ],
            "type" : "VEC3"
        },
        {
            "bufferView" : 1,
            "componentType" : 5126,
            "count" : 2104,
            "type" : "VEC3"
        },
        {
            "bufferView" : 2,
            "componentType" : 5126,
            "count" : 2104,
            "type" : "VEC2"
        },
        {
            "bufferView" : 3,
            "componentType" : 5123,
            "count" : 2892,
            "type" : "SCALAR"
        }
    ],
    "bufferViews" : [
        {
            "buffer" : 0,
            "byteLength" : 25248,
            "byteOffset" : 0
        },
        {
            "buffer" : 0,
            "byteLength" : 25248,
            "byteOffset" : 25248
        },
        {
            "buffer" : 0,
            "byteLength" : 16832,
            "byteOffset" : 50496
        },
        {
            "buffer" : 0,
            "byteLength" : 5784,
            "byteOffset" : 67328
        }
    ],
    "buffers" : [
        {
            "byteLength" : 73112,
            "uri" : "data:application/octet-stream;base64,"
        }
    ]
}
