{
    "asset" : {
        "generator" : "Khronos glTF Blender I/O v1.0.5",
        "version" : "2.0"
    },
    "scene" : 0,
    "scenes" : [
        {
            "name" : "Scene",
            "nodes" : [
                0
            ]
        }
    ],
    "nodes" : [
        {
            "mesh" : 0,
            "name" : "PlaneO",
            "translation" : [
                5.790343761444092,
                0,
                0.4629581868648529
            ]
        }
    ],
    "meshes" : [
        {
            "name" : "Plane.119",
            "primitives" : [
                {
                    "attributes" : {
                        "POSITION" : 0,
                        "NORMAL" : 1,
                        "TEXCOORD_0" : 2
                    },
                    "indices" : 3
                }
            ]
        }
    ],
    "accessors" : [
        {
            "bufferView" : 0,
            "componentType" : 5126,
            "count" : 1777,
            "max" : [
                1.1786224842071533,
                -1.2552918349229003e-07,
                0.05394217371940613
            ],
            "min" : [
                -0.03437232971191406,
                -0.840766191482544,
                -0.8810805678367615
            ],
            "type" : "VEC3"
        },
        {
            "bufferView" : 1,
            "componentType" : 5126,
            "count" : 1777,
            "type" : "VEC3"
        },
        {
            "bufferView" : 2,
            "componentType" : 5126,
            "count" : 1777,
            "type" : "VEC2"
        },
        {
            "bufferView" : 3,
            "componentType" : 5123,
            "count" : 2556,
            "type" : "SCALAR"
        }
    ],
    "bufferViews" : [
        {
            "buffer" : 0,
            "byteLength" : 21324,
            "byteOffset" : 0
        },
        {
            "buffer" : 0,
            "byteLength" : 21324,
            "byteOffset" : 21324
        },
        {
            "buffer" : 0,
            "byteLength" : 14216,
            "byteOffset" : 42648
        },
        {
            "buffer" : 0,
            "byteLength" : 5112,
            "byteOffset" : 56864
        }
    ],
    "buffers" : [
        {
            "byteLength" : 61976,
            "uri" : "data:application/octet-stream;base64,"
        }
    ]
}
