{
    "asset" : {
        "generator" : "Khronos glTF Blender I/O v1.0.5",
        "version" : "2.0"
    },
    "scene" : 0,
    "scenes" : [
        {
            "name" : "Scene",
            "nodes" : [
                0
            ]
        }
    ],
    "nodes" : [
        {
            "mesh" : 0,
            "name" : "PlaneR",
            "translation" : [
                9.729962348937988,
                0,
                0.5737637281417847
            ]
        }
    ],
    "meshes" : [
        {
            "name" : "Plane.121",
            "primitives" : [
                {
                    "attributes" : {
                        "POSITION" : 0,
                        "NORMAL" : 1,
                        "TEXCOORD_0" : 2
                    },
                    "indices" : 3
                }
            ]
        }
    ],
    "accessors" : [
        {
            "bufferView" : 0,
            "componentType" : 5126,
            "count" : 987,
            "max" : [
                1.1174263954162598,
                -7.313230980798835e-07,
                0.008207559585571289
            ],
            "min" : [
                0.02781856060028076,
                -0.19651412963867188,
                -0.9171432256698608
            ],
            "type" : "VEC3"
        },
        {
            "bufferView" : 1,
            "componentType" : 5126,
            "count" : 987,
            "type" : "VEC3"
        },
        {
            "bufferView" : 2,
            "componentType" : 5126,
            "count" : 987,
            "type" : "VEC2"
        },
        {
            "bufferView" : 3,
            "componentType" : 5123,
            "count" : 1044,
            "type" : "SCALAR"
        }
    ],
    "bufferViews" : [
        {
            "buffer" : 0,
            "byteLength" : 11844,
            "byteOffset" : 0
        },
        {
            "buffer" : 0,
            "byteLength" : 11844,
            "byteOffset" : 11844
        },
        {
            "buffer" : 0,
            "byteLength" : 7896,
            "byteOffset" : 23688
        },
        {
            "buffer" : 0,
            "byteLength" : 2088,
            "byteOffset" : 31584
        }
    ],
    "buffers" : [
        {
            "byteLength" : 33672,
            "uri" : "data:application/octet-stream;base64,"
        }
    ]
}
