{
    "asset" : {
        "generator" : "Khronos glTF Blender I/O v1.0.5",
        "version" : "2.0"
    },
    "scene" : 0,
    "scenes" : [
        {
            "name" : "Scene",
            "nodes" : [
                0
            ]
        }
    ],
    "nodes" : [
        {
            "mesh" : 0,
            "name" : "PlaneF",
            "rotation" : [
                0.503516435623169,
                -0.4964587092399597,
                0.4964587390422821,
                0.5035163760185242
            ],
            "scale" : [
                6.138720512390137,
                5.118853569030762,
                5.318147659301758
            ],
            "translation" : [
                -5.270848274230957,
                0,
                0.2911530137062073
            ]
        }
    ],
    "meshes" : [
        {
            "name" : "Plane.110",
            "primitives" : [
                {
                    "attributes" : {
                        "POSITION" : 0,
                        "NORMAL" : 1,
                        "TEXCOORD_0" : 2
                    },
                    "indices" : 3
                }
            ]
        }
    ],
    "accessors" : [
        {
            "bufferView" : 0,
            "componentType" : 5126,
            "count" : 136,
            "max" : [
                0.02111232280731201,
                -0.005121871829032898,
                0.15966184437274933
            ],
            "min" : [
                -0.14178821444511414,
                -0.20047815144062042,
                -0.0283737163990736
            ],
            "type" : "VEC3"
        },
        {
            "bufferView" : 1,
            "componentType" : 5126,
            "count" : 136,
            "type" : "VEC3"
        },
        {
            "bufferView" : 2,
            "componentType" : 5126,
            "count" : 136,
            "type" : "VEC2"
        },
        {
            "bufferView" : 3,
            "componentType" : 5123,
            "count" : 144,
            "type" : "SCALAR"
        }
    ],
    "bufferViews" : [
        {
            "buffer" : 0,
            "byteLength" : 1632,
            "byteOffset" : 0
        },
        {
            "buffer" : 0,
            "byteLength" : 1632,
            "byteOffset" : 1632
        },
        {
            "buffer" : 0,
            "byteLength" : 1088,
            "byteOffset" : 3264
        },
        {
            "buffer" : 0,
            "byteLength" : 288,
            "byteOffset" : 4352
        }
    ],
    "buffers" : [
        {
            "byteLength" : 4640,
            "uri" : "data:application/octet-stream;base64,"
        }
    ]
}
