{
    "asset" : {
        "generator" : "Khronos glTF Blender I/O v1.0.5",
        "version" : "2.0"
    },
    "scene" : 0,
    "scenes" : [
        {
            "name" : "Scene",
            "nodes" : [
                0
            ]
        }
    ],
    "nodes" : [
        {
            "mesh" : 0,
            "name" : "PlaneZ",
            "translation" : [
                3.3638663291931152,
                0,
                2.002941131591797
            ]
        }
    ],
    "meshes" : [
        {
            "name" : "Plane.129",
            "primitives" : [
                {
                    "attributes" : {
                        "POSITION" : 0,
                        "NORMAL" : 1,
                        "TEXCOORD_0" : 2
                    },
                    "indices" : 3
                }
            ]
        }
    ],
    "accessors" : [
        {
            "bufferView" : 0,
            "componentType" : 5126,
            "count" : 339,
            "max" : [
                1.1807751655578613,
                0.20622311532497406,
                -0.07804083824157715
            ],
            "min" : [
                -0.0419921875,
                -1.072193981599412e-06,
                -0.984452486038208
            ],
            "type" : "VEC3"
        },
        {
            "bufferView" : 1,
            "componentType" : 5126,
            "count" : 339,
            "type" : "VEC3"
        },
        {
            "bufferView" : 2,
            "componentType" : 5126,
            "count" : 339,
            "type" : "VEC2"
        },
        {
            "bufferView" : 3,
            "componentType" : 5123,
            "count" : 360,
            "type" : "SCALAR"
        }
    ],
    "bufferViews" : [
        {
            "buffer" : 0,
            "byteLength" : 4068,
            "byteOffset" : 0
        },
        {
            "buffer" : 0,
            "byteLength" : 4068,
            "byteOffset" : 4068
        },
        {
            "buffer" : 0,
            "byteLength" : 2712,
            "byteOffset" : 8136
        },
        {
            "buffer" : 0,
            "byteLength" : 720,
            "byteOffset" : 10848
        }
    ],
    "buffers" : [
        {
            "byteLength" : 11568,
            "uri" : "data:application/octet-stream;base64,"
        }
    ]
}
