{
    "asset" : {
        "generator" : "Khronos glTF Blender I/O v1.0.5",
        "version" : "2.0"
    },
    "scene" : 0,
    "scenes" : [
        {
            "name" : "Scene",
            "nodes" : [
                0
            ]
        }
    ],
    "nodes" : [
        {
            "mesh" : 0,
            "name" : "PlaneU",
            "translation" : [
                -3.9844071865081787,
                0,
                1.94138503074646
            ]
        }
    ],
    "meshes" : [
        {
            "name" : "Plane.124",
            "primitives" : [
                {
                    "attributes" : {
                        "POSITION" : 0,
                        "NORMAL" : 1,
                        "TEXCOORD_0" : 2
                    },
                    "indices" : 3
                }
            ]
        }
    ],
    "accessors" : [
        {
            "bufferView" : 0,
            "componentType" : 5126,
            "count" : 629,
            "max" : [
                1.0218260288238525,
                -7.375207360382774e-07,
                -0.011069297790527344
            ],
            "min" : [
                0.037039995193481445,
                -0.13858306407928467,
                -0.9312137365341187
            ],
            "type" : "VEC3"
        },
        {
            "bufferView" : 1,
            "componentType" : 5126,
            "count" : 629,
            "type" : "VEC3"
        },
        {
            "bufferView" : 2,
            "componentType" : 5126,
            "count" : 629,
            "type" : "VEC2"
        },
        {
            "bufferView" : 3,
            "componentType" : 5123,
            "count" : 648,
            "type" : "SCALAR"
        }
    ],
    "bufferViews" : [
        {
            "buffer" : 0,
            "byteLength" : 7548,
            "byteOffset" : 0
        },
        {
            "buffer" : 0,
            "byteLength" : 7548,
            "byteOffset" : 7548
        },
        {
            "buffer" : 0,
            "byteLength" : 5032,
            "byteOffset" : 15096
        },
        {
            "buffer" : 0,
            "byteLength" : 1296,
            "byteOffset" : 20128
        }
    ],
    "buffers" : [
        {
            "byteLength" : 21424,
            "uri" : "data:application/octet-stream;base64,"
        }
    ]
}
