{
    "asset" : {
        "generator" : "Khronos glTF Blender I/O v1.0.5",
        "version" : "2.0"
    },
    "scene" : 0,
    "scenes" : [
        {
            "name" : "Scene",
            "nodes" : [
                0
            ]
        }
    ],
    "nodes" : [
        {
            "mesh" : 0,
            "name" : "PlaneH",
            "rotation" : [
                0.4862334728240967,
                0.5133975744247437,
                -0.5133975148200989,
                0.4862334132194519
            ],
            "scale" : [
                36.554012298583984,
                27.36065101623535,
                44.917476654052734
            ],
            "translation" : [
                -2.8517980575561523,
                -0.0014845203841105103,
                0.35774630308151245
            ]
        }
    ],
    "meshes" : [
        {
            "name" : "Plane.112",
            "primitives" : [
                {
                    "attributes" : {
                        "POSITION" : 0,
                        "NORMAL" : 1,
                        "TEXCOORD_0" : 2
                    },
                    "indices" : 3
                }
            ]
        }
    ],
    "accessors" : [
        {
            "bufferView" : 0,
            "componentType" : 5126,
            "count" : 564,
            "max" : [
                0.02500150352716446,
                0.03617087006568909,
                -0.10338558256626129
            ],
            "min" : [
                -0.0023553036153316498,
                -0.00037798285484313965,
                -0.12564866244792938
            ],
            "type" : "VEC3"
        },
        {
            "bufferView" : 1,
            "componentType" : 5126,
            "count" : 564,
            "type" : "VEC3"
        },
        {
            "bufferView" : 2,
            "componentType" : 5126,
            "count" : 564,
            "type" : "VEC2"
        },
        {
            "bufferView" : 3,
            "componentType" : 5123,
            "count" : 588,
            "type" : "SCALAR"
        }
    ],
    "bufferViews" : [
        {
            "buffer" : 0,
            "byteLength" : 6768,
            "byteOffset" : 0
        },
        {
            "buffer" : 0,
            "byteLength" : 6768,
            "byteOffset" : 6768
        },
        {
            "buffer" : 0,
            "byteLength" : 4512,
            "byteOffset" : 13536
        },
        {
            "buffer" : 0,
            "byteLength" : 1176,
            "byteOffset" : 18048
        }
    ],
    "buffers" : [
        {
            "byteLength" : 19224,
            "uri" : "data:application/octet-stream;base64,"
        }
    ]
}
