{
    "asset" : {
        "generator" : "Khronos glTF Blender I/O v1.0.5",
        "version" : "2.0"
    },
    "scene" : 0,
    "scenes" : [
        {
            "name" : "Scene",
            "nodes" : [
                0
            ]
        }
    ],
    "nodes" : [
        {
            "mesh" : 0,
            "name" : "z",
            "rotation" : [
                0.7071068286895752,
                0,
                0,
                0.7071067094802856
            ],
            "translation" : [
                4.0072150230407715,
                0,
                1.376183032989502
            ]
        }
    ],
    "meshes" : [
        {
            "name" : "Plane.195",
            "primitives" : [
                {
                    "attributes" : {
                        "POSITION" : 0,
                        "NORMAL" : 1,
                        "TEXCOORD_0" : 2
                    },
                    "indices" : 3
                }
            ]
        }
    ],
    "accessors" : [
        {
            "bufferView" : 0,
            "componentType" : 5126,
            "count" : 724,
            "max" : [
                0.7273657321929932,
                0.30781808495521545,
                0
            ],
            "min" : [
                -0.34011387825012207,
                -0.7255557179450989,
                -0.06589457392692566
            ],
            "type" : "VEC3"
        },
        {
            "bufferView" : 1,
            "componentType" : 5126,
            "count" : 724,
            "type" : "VEC3"
        },
        {
            "bufferView" : 2,
            "componentType" : 5126,
            "count" : 724,
            "type" : "VEC2"
        },
        {
            "bufferView" : 3,
            "componentType" : 5123,
            "count" : 930,
            "type" : "SCALAR"
        }
    ],
    "bufferViews" : [
        {
            "buffer" : 0,
            "byteLength" : 8688,
            "byteOffset" : 0
        },
        {
            "buffer" : 0,
            "byteLength" : 8688,
            "byteOffset" : 8688
        },
        {
            "buffer" : 0,
            "byteLength" : 5792,
            "byteOffset" : 17376
        },
        {
            "buffer" : 0,
            "byteLength" : 1860,
            "byteOffset" : 23168
        }
    ],
    "buffers" : [
        {
            "byteLength" : 25028,
            "uri" : "data:application/octet-stream;base64,"
        }
    ]
}
