{
    "asset" : {
        "generator" : "Khronos glTF Blender I/O v1.0.5",
        "version" : "2.0"
    },
    "scene" : 0,
    "scenes" : [
        {
            "name" : "Scene",
            "nodes" : [
                0
            ]
        }
    ],
    "nodes" : [
        {
            "mesh" : 0,
            "name" : "n",
            "rotation" : [
                0.7071068286895752,
                0,
                0,
                0.7071067094802856
            ],
            "translation" : [
                4.639655590057373,
                0.04884491488337517,
                -1.0392508506774902
            ]
        }
    ],
    "meshes" : [
        {
            "name" : "Plane.184",
            "primitives" : [
                {
                    "attributes" : {
                        "POSITION" : 0,
                        "NORMAL" : 1,
                        "TEXCOORD_0" : 2
                    },
                    "indices" : 3
                }
            ]
        }
    ],
    "accessors" : [
        {
            "bufferView" : 0,
            "componentType" : 5126,
            "count" : 605,
            "max" : [
                1.1584703922271729,
                0.13820719718933105,
                0.04884496331214905
            ],
            "min" : [
                -0.0022287368774414062,
                -0.6884778738021851,
                0
            ],
            "type" : "VEC3"
        },
        {
            "bufferView" : 1,
            "componentType" : 5126,
            "count" : 605,
            "type" : "VEC3"
        },
        {
            "bufferView" : 2,
            "componentType" : 5126,
            "count" : 605,
            "type" : "VEC2"
        },
        {
            "bufferView" : 3,
            "componentType" : 5123,
            "count" : 813,
            "type" : "SCALAR"
        }
    ],
    "bufferViews" : [
        {
            "buffer" : 0,
            "byteLength" : 7260,
            "byteOffset" : 0
        },
        {
            "buffer" : 0,
            "byteLength" : 7260,
            "byteOffset" : 7260
        },
        {
            "buffer" : 0,
            "byteLength" : 4840,
            "byteOffset" : 14520
        },
        {
            "buffer" : 0,
            "byteLength" : 1626,
            "byteOffset" : 19360
        }
    ],
    "buffers" : [
        {
            "byteLength" : 20988,
            "uri" : "data:application/octet-stream;base64,"
        }
    ]
}
