{
    "asset" : {
        "generator" : "Khronos glTF Blender I/O v1.0.5",
        "version" : "2.0"
    },
    "scene" : 0,
    "scenes" : [
        {
            "name" : "Scene",
            "nodes" : [
                0
            ]
        }
    ],
    "nodes" : [
        {
            "mesh" : 0,
            "name" : "g",
            "rotation" : [
                0.7071068286895752,
                0,
                0,
                0.7071067094802856
            ],
            "translation" : [
                -5.443057537078857,
                0,
                0.25725436210632324
            ]
        }
    ],
    "meshes" : [
        {
            "name" : "Plane.164",
            "primitives" : [
                {
                    "attributes" : {
                        "POSITION" : 0,
                        "NORMAL" : 1,
                        "TEXCOORD_0" : 2
                    },
                    "indices" : 3
                }
            ]
        }
    ],
    "accessors" : [
        {
            "bufferView" : 0,
            "componentType" : 5126,
            "count" : 2034,
            "max" : [
                1.119198203086853,
                1.0206100940704346,
                0
            ],
            "min" : [
                -0.08369062840938568,
                -1.446167230606079,
                -0.051209982484579086
            ],
            "type" : "VEC3"
        },
        {
            "bufferView" : 1,
            "componentType" : 5126,
            "count" : 2034,
            "type" : "VEC3"
        },
        {
            "bufferView" : 2,
            "componentType" : 5126,
            "count" : 2034,
            "type" : "VEC2"
        },
        {
            "bufferView" : 3,
            "componentType" : 5123,
            "count" : 2721,
            "type" : "SCALAR"
        }
    ],
    "bufferViews" : [
        {
            "buffer" : 0,
            "byteLength" : 24408,
            "byteOffset" : 0
        },
        {
            "buffer" : 0,
            "byteLength" : 24408,
            "byteOffset" : 24408
        },
        {
            "buffer" : 0,
            "byteLength" : 16272,
            "byteOffset" : 48816
        },
        {
            "buffer" : 0,
            "byteLength" : 5442,
            "byteOffset" : 65088
        }
    ],
    "buffers" : [
        {
            "byteLength" : 70532,
            "uri" : "data:application/octet-stream;base64,"
        }
    ]
}
