{
    "asset" : {
        "generator" : "Khronos glTF Blender I/O v1.0.5",
        "version" : "2.0"
    },
    "scene" : 0,
    "scenes" : [
        {
            "name" : "Scene",
            "nodes" : [
                0
            ]
        }
    ],
    "nodes" : [
        {
            "mesh" : 0,
            "name" : "u",
            "rotation" : [
                0.7071068286895752,
                0,
                0,
                0.7071067094802856
            ],
            "translation" : [
                -1.2881861925125122,
                0,
                1.306586742401123
            ]
        }
    ],
    "meshes" : [
        {
            "name" : "Plane.191",
            "primitives" : [
                {
                    "attributes" : {
                        "POSITION" : 0,
                        "NORMAL" : 1,
                        "TEXCOORD_0" : 2
                    },
                    "indices" : 3
                }
            ]
        }
    ],
    "accessors" : [
        {
            "bufferView" : 0,
            "componentType" : 5126,
            "count" : 595,
            "max" : [
                0.9351238012313843,
                0.016719788312911987,
                0
            ],
            "min" : [
                0.02080821990966797,
                -0.6939863562583923,
                -0.04217271879315376
            ],
            "type" : "VEC3"
        },
        {
            "bufferView" : 1,
            "componentType" : 5126,
            "count" : 595,
            "type" : "VEC3"
        },
        {
            "bufferView" : 2,
            "componentType" : 5126,
            "count" : 595,
            "type" : "VEC2"
        },
        {
            "bufferView" : 3,
            "componentType" : 5123,
            "count" : 759,
            "type" : "SCALAR"
        }
    ],
    "bufferViews" : [
        {
            "buffer" : 0,
            "byteLength" : 7140,
            "byteOffset" : 0
        },
        {
            "buffer" : 0,
            "byteLength" : 7140,
            "byteOffset" : 7140
        },
        {
            "buffer" : 0,
            "byteLength" : 4760,
            "byteOffset" : 14280
        },
        {
            "buffer" : 0,
            "byteLength" : 1518,
            "byteOffset" : 19040
        }
    ],
    "buffers" : [
        {
            "byteLength" : 20560,
            "uri" : "data:application/octet-stream;base64,"
        }
    ]
}
