{
    "asset" : {
        "generator" : "Khronos glTF Blender I/O v1.0.5",
        "version" : "2.0"
    },
    "scene" : 0,
    "scenes" : [
        {
            "name" : "Scene",
            "nodes" : [
                0
            ]
        }
    ],
    "nodes" : [
        {
            "mesh" : 0,
            "name" : "j",
            "rotation" : [
                0.7071068286895752,
                0,
                0,
                0.7071067094802856
            ],
            "translation" : [
                -2.868040084838867,
                0,
                0.27269479632377625
            ]
        }
    ],
    "meshes" : [
        {
            "name" : "Plane.167",
            "primitives" : [
                {
                    "attributes" : {
                        "POSITION" : 0,
                        "NORMAL" : 1,
                        "TEXCOORD_0" : 2
                    },
                    "indices" : 3
                }
            ]
        }
    ],
    "accessors" : [
        {
            "bufferView" : 0,
            "componentType" : 5126,
            "count" : 359,
            "max" : [
                0.5159339904785156,
                0.33888769149780273,
                0
            ],
            "min" : [
                -0.41541242599487305,
                -1.0259761810302734,
                -0.07889055460691452
            ],
            "type" : "VEC3"
        },
        {
            "bufferView" : 1,
            "componentType" : 5126,
            "count" : 359,
            "type" : "VEC3"
        },
        {
            "bufferView" : 2,
            "componentType" : 5126,
            "count" : 359,
            "type" : "VEC2"
        },
        {
            "bufferView" : 3,
            "componentType" : 5123,
            "count" : 474,
            "type" : "SCALAR"
        }
    ],
    "bufferViews" : [
        {
            "buffer" : 0,
            "byteLength" : 4308,
            "byteOffset" : 0
        },
        {
            "buffer" : 0,
            "byteLength" : 4308,
            "byteOffset" : 4308
        },
        {
            "buffer" : 0,
            "byteLength" : 2872,
            "byteOffset" : 8616
        },
        {
            "buffer" : 0,
            "byteLength" : 948,
            "byteOffset" : 11488
        }
    ],
    "buffers" : [
        {
            "byteLength" : 12436,
            "uri" : "data:application/octet-stream;base64,"
        }
    ]
}
