{
    "asset" : {
        "generator" : "Khronos glTF Blender I/O v1.0.5",
        "version" : "2.0"
    },
    "scene" : 0,
    "scenes" : [
        {
            "name" : "Scene",
            "nodes" : [
                0
            ]
        }
    ],
    "nodes" : [
        {
            "mesh" : 0,
            "name" : "d",
            "rotation" : [
                0.7071068286895752,
                0,
                0,
                0.7071067094802856
            ],
            "translation" : [
                -7.91828727722168,
                0,
                0.32018399238586426
            ]
        }
    ],
    "meshes" : [
        {
            "name" : "Plane.161",
            "primitives" : [
                {
                    "attributes" : {
                        "POSITION" : 0,
                        "NORMAL" : 1,
                        "TEXCOORD_0" : 2
                    },
                    "indices" : 3
                }
            ]
        }
    ],
    "accessors" : [
        {
            "bufferView" : 0,
            "componentType" : 5126,
            "count" : 571,
            "max" : [
                1.192561149597168,
                0.11857032775878906,
                0
            ],
            "min" : [
                0.03207206726074219,
                -0.9904685020446777,
                -0.05791851878166199
            ],
            "type" : "VEC3"
        },
        {
            "bufferView" : 1,
            "componentType" : 5126,
            "count" : 571,
            "type" : "VEC3"
        },
        {
            "bufferView" : 2,
            "componentType" : 5126,
            "count" : 571,
            "type" : "VEC2"
        },
        {
            "bufferView" : 3,
            "componentType" : 5123,
            "count" : 765,
            "type" : "SCALAR"
        }
    ],
    "bufferViews" : [
        {
            "buffer" : 0,
            "byteLength" : 6852,
            "byteOffset" : 0
        },
        {
            "buffer" : 0,
            "byteLength" : 6852,
            "byteOffset" : 6852
        },
        {
            "buffer" : 0,
            "byteLength" : 4568,
            "byteOffset" : 13704
        },
        {
            "buffer" : 0,
            "byteLength" : 1530,
            "byteOffset" : 18272
        }
    ],
    "buffers" : [
        {
            "byteLength" : 19804,
            "uri" : "data:application/octet-stream;base64,"
        }
    ]
}
