{
    "asset" : {
        "generator" : "Khronos glTF Blender I/O v1.0.5",
        "version" : "2.0"
    },
    "scene" : 0,
    "scenes" : [
        {
            "name" : "Scene",
            "nodes" : [
                0
            ]
        }
    ],
    "nodes" : [
        {
            "mesh" : 0,
            "name" : "o",
            "rotation" : [
                0.7071068286895752,
                0,
                0,
                0.7071067094802856
            ],
            "translation" : [
                5.6839189529418945,
                0,
                -1.074749231338501
            ]
        }
    ],
    "meshes" : [
        {
            "name" : "Plane.185",
            "primitives" : [
                {
                    "attributes" : {
                        "POSITION" : 0,
                        "NORMAL" : 1,
                        "TEXCOORD_0" : 2
                    },
                    "indices" : 3
                }
            ]
        }
    ],
    "accessors" : [
        {
            "bufferView" : 0,
            "componentType" : 5126,
            "count" : 1019,
            "max" : [
                0.8491678237915039,
                0.05783563852310181,
                0
            ],
            "min" : [
                -0.08189800381660461,
                -0.6632252335548401,
                -0.04884496331214905
            ],
            "type" : "VEC3"
        },
        {
            "bufferView" : 1,
            "componentType" : 5126,
            "count" : 1019,
            "type" : "VEC3"
        },
        {
            "bufferView" : 2,
            "componentType" : 5126,
            "count" : 1019,
            "type" : "VEC2"
        },
        {
            "bufferView" : 3,
            "componentType" : 5123,
            "count" : 1404,
            "type" : "SCALAR"
        }
    ],
    "bufferViews" : [
        {
            "buffer" : 0,
            "byteLength" : 12228,
            "byteOffset" : 0
        },
        {
            "buffer" : 0,
            "byteLength" : 12228,
            "byteOffset" : 12228
        },
        {
            "buffer" : 0,
            "byteLength" : 8152,
            "byteOffset" : 24456
        },
        {
            "buffer" : 0,
            "byteLength" : 2808,
            "byteOffset" : 32608
        }
    ],
    "buffers" : [
        {
            "byteLength" : 35416,
            "uri" : "data:application/octet-stream;base64,"
        }
    ]
}
