{
    "asset" : {
        "generator" : "Khronos glTF Blender I/O v1.0.5",
        "version" : "2.0"
    },
    "scene" : 0,
    "scenes" : [
        {
            "name" : "Scene",
            "nodes" : [
                0
            ]
        }
    ],
    "nodes" : [
        {
            "mesh" : 0,
            "name" : "b",
            "rotation" : [
                0.7071068286895752,
                0,
                0,
                0.7071067094802856
            ],
            "translation" : [
                -9.59640884399414,
                0,
                0.2782309055328369
            ]
        }
    ],
    "meshes" : [
        {
            "name" : "Plane.159",
            "primitives" : [
                {
                    "attributes" : {
                        "POSITION" : 0,
                        "NORMAL" : 1,
                        "TEXCOORD_0" : 2
                    },
                    "indices" : 3
                }
            ]
        }
    ],
    "accessors" : [
        {
            "bufferView" : 0,
            "componentType" : 5126,
            "count" : 616,
            "max" : [
                0.876335620880127,
                0.0002397298812866211,
                0
            ],
            "min" : [
                0.009363174438476562,
                -0.9388763904571533,
                -0.07773798704147339
            ],
            "type" : "VEC3"
        },
        {
            "bufferView" : 1,
            "componentType" : 5126,
            "count" : 616,
            "type" : "VEC3"
        },
        {
            "bufferView" : 2,
            "componentType" : 5126,
            "count" : 616,
            "type" : "VEC2"
        },
        {
            "bufferView" : 3,
            "componentType" : 5123,
            "count" : 804,
            "type" : "SCALAR"
        }
    ],
    "bufferViews" : [
        {
            "buffer" : 0,
            "byteLength" : 7392,
            "byteOffset" : 0
        },
        {
            "buffer" : 0,
            "byteLength" : 7392,
            "byteOffset" : 7392
        },
        {
            "buffer" : 0,
            "byteLength" : 4928,
            "byteOffset" : 14784
        },
        {
            "buffer" : 0,
            "byteLength" : 1608,
            "byteOffset" : 19712
        }
    ],
    "buffers" : [
        {
            "byteLength" : 21320,
            "uri" : "data:application/octet-stream;base64,"
        }
    ]
}
