{
    "asset" : {
        "generator" : "Khronos glTF Blender I/O v1.0.5",
        "version" : "2.0"
    },
    "scene" : 0,
    "scenes" : [
        {
            "name" : "Scene",
            "nodes" : [
                0
            ]
        }
    ],
    "nodes" : [
        {
            "mesh" : 0,
            "name" : "r",
            "rotation" : [
                0.7071068286895752,
                0,
                0,
                0.7071067094802856
            ],
            "translation" : [
                -3.435481071472168,
                0,
                1.3227264881134033
            ]
        }
    ],
    "meshes" : [
        {
            "name" : "Plane.188",
            "primitives" : [
                {
                    "attributes" : {
                        "POSITION" : 0,
                        "NORMAL" : 1,
                        "TEXCOORD_0" : 2
                    },
                    "indices" : 3
                }
            ]
        }
    ],
    "accessors" : [
        {
            "bufferView" : 0,
            "componentType" : 5126,
            "count" : 237,
            "max" : [
                0.6760103702545166,
                -0.022556781768798828,
                0
            ],
            "min" : [
                0.04286909103393555,
                -0.7155427932739258,
                -0.05700978636741638
            ],
            "type" : "VEC3"
        },
        {
            "bufferView" : 1,
            "componentType" : 5126,
            "count" : 237,
            "type" : "VEC3"
        },
        {
            "bufferView" : 2,
            "componentType" : 5126,
            "count" : 237,
            "type" : "VEC2"
        },
        {
            "bufferView" : 3,
            "componentType" : 5123,
            "count" : 336,
            "type" : "SCALAR"
        }
    ],
    "bufferViews" : [
        {
            "buffer" : 0,
            "byteLength" : 2844,
            "byteOffset" : 0
        },
        {
            "buffer" : 0,
            "byteLength" : 2844,
            "byteOffset" : 2844
        },
        {
            "buffer" : 0,
            "byteLength" : 1896,
            "byteOffset" : 5688
        },
        {
            "buffer" : 0,
            "byteLength" : 672,
            "byteOffset" : 7584
        }
    ],
    "buffers" : [
        {
            "byteLength" : 8256,
            "uri" : "data:application/octet-stream;base64,"
        }
    ]
}
