{
    "asset" : {
        "generator" : "Khronos glTF Blender I/O v1.0.5",
        "version" : "2.0"
    },
    "scene" : 0,
    "scenes" : [
        {
            "name" : "Scene",
            "nodes" : [
                0
            ]
        }
    ],
    "nodes" : [
        {
            "mesh" : 0,
            "name" : "m",
            "rotation" : [
                0.7071068286895752,
                0,
                0,
                0.7071067094802856
            ],
            "translation" : [
                3.2061338424682617,
                0,
                -0.9784948229789734
            ]
        }
    ],
    "meshes" : [
        {
            "name" : "Plane.183",
            "primitives" : [
                {
                    "attributes" : {
                        "POSITION" : 0,
                        "NORMAL" : 1,
                        "TEXCOORD_0" : 2
                    },
                    "indices" : 3
                }
            ]
        }
    ],
    "accessors" : [
        {
            "bufferView" : 0,
            "componentType" : 5126,
            "count" : 628,
            "max" : [
                1.5970559120178223,
                0.18774688243865967,
                0
            ],
            "min" : [
                0.0011897087097167969,
                -0.7100062370300293,
                -0.0488305501639843
            ],
            "type" : "VEC3"
        },
        {
            "bufferView" : 1,
            "componentType" : 5126,
            "count" : 628,
            "type" : "VEC3"
        },
        {
            "bufferView" : 2,
            "componentType" : 5126,
            "count" : 628,
            "type" : "VEC2"
        },
        {
            "bufferView" : 3,
            "componentType" : 5123,
            "count" : 846,
            "type" : "SCALAR"
        }
    ],
    "bufferViews" : [
        {
            "buffer" : 0,
            "byteLength" : 7536,
            "byteOffset" : 0
        },
        {
            "buffer" : 0,
            "byteLength" : 7536,
            "byteOffset" : 7536
        },
        {
            "buffer" : 0,
            "byteLength" : 5024,
            "byteOffset" : 15072
        },
        {
            "buffer" : 0,
            "byteLength" : 1692,
            "byteOffset" : 20096
        }
    ],
    "buffers" : [
        {
            "byteLength" : 21788,
            "uri" : "data:application/octet-stream;base64,"
        }
    ]
}
