{
    "asset" : {
        "generator" : "Khronos glTF Blender I/O v1.0.5",
        "version" : "2.0"
    },
    "scene" : 0,
    "scenes" : [
        {
            "name" : "Scene",
            "nodes" : [
                0
            ]
        }
    ],
    "nodes" : [
        {
            "mesh" : 0,
            "name" : "e",
            "rotation" : [
                0.7071068286895752,
                0,
                0,
                0.7071067094802856
            ],
            "translation" : [
                -6.953367233276367,
                0,
                0.2782309055328369
            ]
        }
    ],
    "meshes" : [
        {
            "name" : "Plane.162",
            "primitives" : [
                {
                    "attributes" : {
                        "POSITION" : 0,
                        "NORMAL" : 1,
                        "TEXCOORD_0" : 2
                    },
                    "indices" : 3
                }
            ]
        }
    ],
    "accessors" : [
        {
            "bufferView" : 0,
            "componentType" : 5126,
            "count" : 803,
            "max" : [
                0.9323982000350952,
                -0.012023329734802246,
                0
            ],
            "min" : [
                0.019315123558044434,
                -0.6935272216796875,
                -0.06295332312583923
            ],
            "type" : "VEC3"
        },
        {
            "bufferView" : 1,
            "componentType" : 5126,
            "count" : 803,
            "type" : "VEC3"
        },
        {
            "bufferView" : 2,
            "componentType" : 5126,
            "count" : 803,
            "type" : "VEC2"
        },
        {
            "bufferView" : 3,
            "componentType" : 5123,
            "count" : 1092,
            "type" : "SCALAR"
        }
    ],
    "bufferViews" : [
        {
            "buffer" : 0,
            "byteLength" : 9636,
            "byteOffset" : 0
        },
        {
            "buffer" : 0,
            "byteLength" : 9636,
            "byteOffset" : 9636
        },
        {
            "buffer" : 0,
            "byteLength" : 6424,
            "byteOffset" : 19272
        },
        {
            "buffer" : 0,
            "byteLength" : 2184,
            "byteOffset" : 25696
        }
    ],
    "buffers" : [
        {
            "byteLength" : 27880,
            "uri" : "data:application/octet-stream;base64,"
        }
    ]
}
