{
    "asset" : {
        "generator" : "Khronos glTF Blender I/O v1.0.5",
        "version" : "2.0"
    },
    "scene" : 0,
    "scenes" : [
        {
            "name" : "Scene",
            "nodes" : [
                0
            ]
        }
    ],
    "nodes" : [
        {
            "mesh" : 0,
            "name" : "x",
            "rotation" : [
                1,
                0,
                0,
                -1.3435885648505064e-07
            ],
            "translation" : [
                1.9884600639343262,
                0,
                1.3761836290359497
            ]
        }
    ],
    "meshes" : [
        {
            "name" : "Plane.253",
            "primitives" : [
                {
                    "attributes" : {
                        "POSITION" : 0,
                        "NORMAL" : 1,
                        "TEXCOORD_0" : 2
                    },
                    "indices" : 3
                }
            ]
        }
    ],
    "accessors" : [
        {
            "bufferView" : 0,
            "componentType" : 5126,
            "count" : 168,
            "max" : [
                0.8995361328125,
                0,
                0.7150219082832336
            ],
            "min" : [
                0.02614450454711914,
                -0.06589457392692566,
                0.03799009323120117
            ],
            "type" : "VEC3"
        },
        {
            "bufferView" : 1,
            "componentType" : 5126,
            "count" : 168,
            "type" : "VEC3"
        },
        {
            "bufferView" : 2,
            "componentType" : 5126,
            "count" : 168,
            "type" : "VEC2"
        },
        {
            "bufferView" : 3,
            "componentType" : 5123,
            "count" : 204,
            "type" : "SCALAR"
        }
    ],
    "bufferViews" : [
        {
            "buffer" : 0,
            "byteLength" : 2016,
            "byteOffset" : 0
        },
        {
            "buffer" : 0,
            "byteLength" : 2016,
            "byteOffset" : 2016
        },
        {
            "buffer" : 0,
            "byteLength" : 1344,
            "byteOffset" : 4032
        },
        {
            "buffer" : 0,
            "byteLength" : 408,
            "byteOffset" : 5376
        }
    ],
    "buffers" : [
        {
            "byteLength" : 5784,
            "uri" : "data:application/octet-stream;base64,"
        }
    ]
}
