{
    "asset" : {
        "generator" : "Khronos glTF Blender I/O v1.0.5",
        "version" : "2.0"
    },
    "scene" : 0,
    "scenes" : [
        {
            "name" : "Scene",
            "nodes" : [
                0
            ]
        }
    ],
    "nodes" : [
        {
            "mesh" : 0,
            "name" : "q",
            "rotation" : [
                0.7071068286895752,
                0,
                0,
                0.7071067094802856
            ],
            "translation" : [
                -4.435990810394287,
                0,
                1.3480560779571533
            ]
        }
    ],
    "meshes" : [
        {
            "name" : "Plane.187",
            "primitives" : [
                {
                    "attributes" : {
                        "POSITION" : 0,
                        "NORMAL" : 1,
                        "TEXCOORD_0" : 2
                    },
                    "indices" : 3
                }
            ]
        }
    ],
    "accessors" : [
        {
            "bufferView" : 0,
            "componentType" : 5126,
            "count" : 479,
            "max" : [
                1.0623202323913574,
                0.42937278747558594,
                0
            ],
            "min" : [
                0.03388833999633789,
                -0.7414190173149109,
                -0.07351803779602051
            ],
            "type" : "VEC3"
        },
        {
            "bufferView" : 1,
            "componentType" : 5126,
            "count" : 479,
            "type" : "VEC3"
        },
        {
            "bufferView" : 2,
            "componentType" : 5126,
            "count" : 479,
            "type" : "VEC2"
        },
        {
            "bufferView" : 3,
            "componentType" : 5123,
            "count" : 648,
            "type" : "SCALAR"
        }
    ],
    "bufferViews" : [
        {
            "buffer" : 0,
            "byteLength" : 5748,
            "byteOffset" : 0
        },
        {
            "buffer" : 0,
            "byteLength" : 5748,
            "byteOffset" : 5748
        },
        {
            "buffer" : 0,
            "byteLength" : 3832,
            "byteOffset" : 11496
        },
        {
            "buffer" : 0,
            "byteLength" : 1296,
            "byteOffset" : 15328
        }
    ],
    "buffers" : [
        {
            "byteLength" : 16624,
            "uri" : "data:application/octet-stream;base64,"
        }
    ]
}
