{
    "asset" : {
        "generator" : "Khronos glTF Blender I/O v1.0.5",
        "version" : "2.0"
    },
    "scene" : 0,
    "scenes" : [
        {
            "name" : "Scene",
            "nodes" : [
                0
            ]
        }
    ],
    "nodes" : [
        {
            "mesh" : 0,
            "name" : "h",
            "rotation" : [
                0.7071068286895752,
                0,
                0,
                0.7071067094802856
            ],
            "translation" : [
                -4.399325847625732,
                0,
                0.3356243669986725
            ]
        }
    ],
    "meshes" : [
        {
            "name" : "Plane.165",
            "primitives" : [
                {
                    "attributes" : {
                        "POSITION" : 0,
                        "NORMAL" : 1,
                        "TEXCOORD_0" : 2
                    },
                    "indices" : 3
                }
            ]
        }
    ],
    "accessors" : [
        {
            "bufferView" : 0,
            "componentType" : 5126,
            "count" : 286,
            "max" : [
                1.3033924102783203,
                0.16461175680160522,
                0
            ],
            "min" : [
                0.03565549850463867,
                -0.9466395378112793,
                -0.07765160501003265
            ],
            "type" : "VEC3"
        },
        {
            "bufferView" : 1,
            "componentType" : 5126,
            "count" : 286,
            "type" : "VEC3"
        },
        {
            "bufferView" : 2,
            "componentType" : 5126,
            "count" : 286,
            "type" : "VEC2"
        },
        {
            "bufferView" : 3,
            "componentType" : 5123,
            "count" : 384,
            "type" : "SCALAR"
        }
    ],
    "bufferViews" : [
        {
            "buffer" : 0,
            "byteLength" : 3432,
            "byteOffset" : 0
        },
        {
            "buffer" : 0,
            "byteLength" : 3432,
            "byteOffset" : 3432
        },
        {
            "buffer" : 0,
            "byteLength" : 2288,
            "byteOffset" : 6864
        },
        {
            "buffer" : 0,
            "byteLength" : 768,
            "byteOffset" : 9152
        }
    ],
    "buffers" : [
        {
            "byteLength" : 9920,
            "uri" : "data:application/octet-stream;base64,"
        }
    ]
}
